<svg height="511.02586pt" viewBox="0 0 511.02586 511.02586" width="511.02586pt" xmlns="http://www.w3.org/2000/svg"><path d="m95.816406 159.695312h63.878906v79.847657h-63.878906zm0 0" fill="#acabb1"/><path d="m351.332031 415.207031h63.875v79.847657h-63.875zm0 0" fill="#acabb1"/><path d="m223.574219 191.632812h-191.636719c-17.644531 0-31.9375-14.289062-31.9375-31.9375v-127.757812c0-17.644531 14.292969-31.9375 31.9375-31.9375h191.636719c17.644531 0 31.9375 14.292969 31.9375 31.9375v127.757812c0 17.648438-14.292969 31.9375-31.9375 31.9375zm0 0" fill="#039be5"/><path d="m31.9375 191.632812h191.636719c17.644531 0 31.9375-14.289062 31.9375-31.9375h-255.511719c0 17.648438 14.292969 31.9375 31.9375 31.9375zm0 0" fill="#c6c5ca"/><path d="m191.632812 255.511719h-127.753906c-8.816406 0-15.96875-7.152344-15.96875-15.96875 0-8.816407 7.152344-15.96875 15.96875-15.96875h127.753906c8.816407 0 15.972657 7.152343 15.972657 15.96875 0 8.816406-7.15625 15.96875-15.972657 15.96875zm0 0" fill="#c6c5ca"/><path d="m479.085938 447.148438h-191.632813c-17.648437 0-31.941406-14.292969-31.941406-31.941407v-127.753906c0-17.648437 14.292969-31.941406 31.941406-31.941406h191.632813c17.648437 0 31.941406 14.292969 31.941406 31.941406v127.753906c0 17.648438-14.292969 31.941407-31.941406 31.941407zm0 0" fill="#039be5"/><path d="m287.453125 447.148438h191.632813c17.648437 0 31.941406-14.292969 31.941406-31.941407h-255.515625c0 17.648438 14.292969 31.941407 31.941406 31.941407zm0 0" fill="#c6c5ca"/><path d="m447.148438 511.027344h-127.757813c-8.816406 0-15.96875-7.15625-15.96875-15.972656 0-8.8125 7.152344-15.96875 15.96875-15.96875h127.757813c8.8125 0 15.96875 7.15625 15.96875 15.96875 0 8.816406-7.15625 15.972656-15.96875 15.972656zm0 0" fill="#c6c5ca"/><g fill="#afcaef"><path d="m303.421875 63.878906h31.9375v31.9375h-31.9375zm0 0"/><path d="m367.300781 191.632812h31.9375v31.941407h-31.9375zm0 0"/><path d="m367.300781 127.757812h31.9375v31.9375h-31.9375zm0 0"/><path d="m367.300781 63.878906h31.9375v31.9375h-31.9375zm0 0"/></g><path d="m31.9375 31.9375h31.941406v31.941406h-31.941406zm0 0" fill="#fff"/><path d="m95.816406 31.9375h31.941406v31.941406h-31.941406zm0 0" fill="#fff"/><path d="m287.453125 287.453125h31.9375v31.9375h-31.9375zm0 0" fill="#fff"/><path d="m351.332031 287.453125h31.9375v31.9375h-31.9375zm0 0" fill="#fff"/></svg>